
<svg id="image_copyright" xmlns="http://www.w3.org/2000/svg" viewBox="0 0 64 64"><style>.st1{fill:none}.st2{fill:#fff}</style><path d="M0 0h64v64H0" fill="#a570f9"/><path class="st1" d="M34.4 36.4l4 3.9c.3.3.3.8 0 1.1-.3.3-.9.3-1.2 0l-8.7-8.3-12 10.2H51v-7.2l-8.9-7.8-7.7 8.1zM13 51h38v-6.1H13V51zm35-4v2H16v-2h32zM21.9 28.9c1.7 0 3-1.3 3-2.9s-1.3-2.9-3-2.9-3 1.3-3 2.9 1.4 2.9 3 2.9z"/><path class="st1" d="M13 43.3h1l14.1-11.9c.3-.3.8-.3 1.1 0l4 3.8 8.2-8.7c.2-.2.4-.3.6-.3.2 0 .4.1.6.2l8.4 7.4V13H13v30.3zm8.9-21.8c2.6 0 4.7 2 4.7 4.5s-2.1 4.5-4.7 4.5-4.7-2-4.7-4.5 2.1-4.5 4.7-4.5z"/><path class="st2" d="M21.9 30.5c2.6 0 4.7-2 4.7-4.5s-2.1-4.5-4.7-4.5-4.7 2-4.7 4.5 2.1 4.5 4.7 4.5zm0-7.4c1.7 0 3 1.3 3 2.9s-1.3 2.9-3 2.9-3-1.3-3-2.9 1.4-2.9 3-2.9zM42 26.3c-.2 0-.4.1-.6.3l-8.2 8.7-4-3.8c-.3-.3-.8-.3-1.1 0L14 43.3h-1v1.6h38v-1.6H16.6l12-10.2 8.7 8.3c.3.3.9.3 1.2 0 .3-.3.3-.8 0-1.1l-4-3.9 7.7-8.1 8.9 7.8v-2.2l-8.4-7.4c-.2-.1-.4-.2-.7-.2z"/><path class="st2" d="M11 11v42h42V11H11zm40 22.9V51H13V13h38v20.9z"/><path class="st2" d="M16 47h32v2H16z"/></svg>